<svg id="Layer_3" data-name="Layer 3" xmlns="http://www.w3.org/2000/svg" xmlns:xlink="http://www.w3.org/1999/xlink" viewBox="0 0 671.93 1190.55"><defs><style>.cls-1{fill-rule:evenodd;fill:url(#linear-gradient);}.cls-2{fill:url(#linear-gradient-2);}</style><linearGradient id="linear-gradient" x1="228.04" y1="1098.53" x2="676.67" y2="249.06" gradientUnits="userSpaceOnUse"><stop offset="0" stop-color="#029a63"/><stop offset="0.14" stop-color="#159d7c"/><stop offset="0.55" stop-color="#4ca6c2"/><stop offset="0.85" stop-color="#6fabee"/><stop offset="1" stop-color="#7cadff"/></linearGradient><linearGradient id="linear-gradient-2" x1="352.48" y1="35.38" x2="423.24" y2="35.38" gradientUnits="userSpaceOnUse"><stop offset="0" stop-color="#7cadff"/><stop offset="1" stop-color="#7cadff"/></linearGradient></defs><title>iRekommend 3</title><path class="cls-1" d="M191.59,841.23a97.57,97.57,0,0,1-13.71-26.73L142.2,826.3a135.49,135.49,0,0,0,19,37ZM173,783.83A97.84,97.84,0,0,1,270.76,686V648.47A135.44,135.44,0,0,0,135.39,783.83Zm484.6,392.38a49,49,0,0,1-69.33,0L421.07,1009.05a269.44,269.44,0,0,1-150.29,45.56C121.33,1054.61,0,933.28,0,783.83S121.33,513.05,270.78,513.05a271,271,0,0,1,74.45,10.38V628a171.69,171.69,0,0,0-74.45-16.85c-95.32,0-172.73,77.39-172.73,172.71s77.41,172.7,172.73,172.7A172.28,172.28,0,0,0,389.8,909a.3.3,0,0,1,.12-.13c.27-.27.57-.54.85-.84a172.21,172.21,0,0,0,52.71-124.16V252.46H283.2a49,49,0,1,1,0-98.08H492.52a49,49,0,0,1,49,49V783.83a269.41,269.41,0,0,1-50.11,156.9l166.12,166.12A49.05,49.05,0,0,1,657.57,1176.21Z"/><circle class="cls-2" cx="387.86" cy="35.38" r="35.38"/></svg>