<?xml version="1.0" encoding="UTF-8" standalone="no"?>
<svg
   xmlns:dc="http://purl.org/dc/elements/1.1/"
   xmlns:cc="http://creativecommons.org/ns#"
   xmlns:rdf="http://www.w3.org/1999/02/22-rdf-syntax-ns#"
   xmlns:svg="http://www.w3.org/2000/svg"
   xmlns="http://www.w3.org/2000/svg"
   xmlns:sodipodi="http://sodipodi.sourceforge.net/DTD/sodipodi-0.dtd"
   xmlns:inkscape="http://www.inkscape.org/namespaces/inkscape"
   version="1.1"
   id="svg2"
   xml:space="preserve"
   width="1122.52"
   height="1587.4"
   viewBox="0 0 1122.52 1587.4"
   sodipodi:docname="Jobsage (2).ai"><metadata
     id="metadata8"><rdf:RDF><cc:Work
         rdf:about=""><dc:format>image/svg+xml</dc:format><dc:type
           rdf:resource="http://purl.org/dc/dcmitype/StillImage" /></cc:Work></rdf:RDF></metadata><defs
     id="defs6"><linearGradient
       x1="0"
       y1="0"
       x2="1"
       y2="0"
       gradientUnits="userSpaceOnUse"
       gradientTransform="matrix(180.59056,341.94662,341.94662,-180.59056,377.50064,427.85474)"
       spreadMethod="pad"
       id="linearGradient30"><stop
         style="stop-opacity:1;stop-color:#029a63"
         offset="0"
         id="stop24" /><stop
         style="stop-opacity:1;stop-color:#7cadff"
         offset="0.85033291"
         id="stop26" /><stop
         style="stop-opacity:1;stop-color:#7cadff"
         offset="1"
         id="stop28" /></linearGradient><linearGradient
       x1="0"
       y1="0"
       x2="1"
       y2="0"
       gradientUnits="userSpaceOnUse"
       gradientTransform="matrix(362.0249,0,0,-362.0249,235.6615,309.39636)"
       spreadMethod="pad"
       id="linearGradient52"><stop
         style="stop-opacity:1;stop-color:#029a63"
         offset="0"
         id="stop46" /><stop
         style="stop-opacity:1;stop-color:#7cadff"
         offset="0.85033291"
         id="stop48" /><stop
         style="stop-opacity:1;stop-color:#7cadff"
         offset="1"
         id="stop50" /></linearGradient><linearGradient
       x1="0"
       y1="0"
       x2="1"
       y2="0"
       gradientUnits="userSpaceOnUse"
       gradientTransform="matrix(362.0249,0,0,-362.0249,235.6615,309.39636)"
       spreadMethod="pad"
       id="linearGradient74"><stop
         style="stop-opacity:1;stop-color:#029a63"
         offset="0"
         id="stop68" /><stop
         style="stop-opacity:1;stop-color:#7cadff"
         offset="0.85033291"
         id="stop70" /><stop
         style="stop-opacity:1;stop-color:#7cadff"
         offset="1"
         id="stop72" /></linearGradient><linearGradient
       x1="0"
       y1="0"
       x2="1"
       y2="0"
       gradientUnits="userSpaceOnUse"
       gradientTransform="matrix(362.0249,0,0,-362.0249,235.6615,309.39636)"
       spreadMethod="pad"
       id="linearGradient96"><stop
         style="stop-opacity:1;stop-color:#029a63"
         offset="0"
         id="stop90" /><stop
         style="stop-opacity:1;stop-color:#7cadff"
         offset="0.85033291"
         id="stop92" /><stop
         style="stop-opacity:1;stop-color:#7cadff"
         offset="1"
         id="stop94" /></linearGradient><linearGradient
       x1="0"
       y1="0"
       x2="1"
       y2="0"
       gradientUnits="userSpaceOnUse"
       gradientTransform="matrix(362.0249,0,0,-362.0249,235.6615,309.39636)"
       spreadMethod="pad"
       id="linearGradient118"><stop
         style="stop-opacity:1;stop-color:#029a63"
         offset="0"
         id="stop112" /><stop
         style="stop-opacity:1;stop-color:#7cadff"
         offset="0.85033291"
         id="stop114" /><stop
         style="stop-opacity:1;stop-color:#7cadff"
         offset="1"
         id="stop116" /></linearGradient><linearGradient
       x1="0"
       y1="0"
       x2="1"
       y2="0"
       gradientUnits="userSpaceOnUse"
       gradientTransform="matrix(362.0249,0,0,-362.0249,235.6615,309.39636)"
       spreadMethod="pad"
       id="linearGradient140"><stop
         style="stop-opacity:1;stop-color:#029a63"
         offset="0"
         id="stop134" /><stop
         style="stop-opacity:1;stop-color:#7cadff"
         offset="0.85033291"
         id="stop136" /><stop
         style="stop-opacity:1;stop-color:#7cadff"
         offset="1"
         id="stop138" /></linearGradient><linearGradient
       x1="0"
       y1="0"
       x2="1"
       y2="0"
       gradientUnits="userSpaceOnUse"
       gradientTransform="matrix(362.0249,0,0,-362.0249,235.6615,309.39636)"
       spreadMethod="pad"
       id="linearGradient162"><stop
         style="stop-opacity:1;stop-color:#029a63"
         offset="0"
         id="stop156" /><stop
         style="stop-opacity:1;stop-color:#7cadff"
         offset="0.85033291"
         id="stop158" /><stop
         style="stop-opacity:1;stop-color:#7cadff"
         offset="1"
         id="stop160" /></linearGradient><linearGradient
       x1="0"
       y1="0"
       x2="1"
       y2="0"
       gradientUnits="userSpaceOnUse"
       gradientTransform="matrix(362.0249,0,0,-362.0249,235.6615,309.39636)"
       spreadMethod="pad"
       id="linearGradient184"><stop
         style="stop-opacity:1;stop-color:#029a63"
         offset="0"
         id="stop178" /><stop
         style="stop-opacity:1;stop-color:#7cadff"
         offset="0.85033291"
         id="stop180" /><stop
         style="stop-opacity:1;stop-color:#7cadff"
         offset="1"
         id="stop182" /></linearGradient></defs><sodipodi:namedview
     pagecolor="#ffffff"
     bordercolor="#666666"
     borderopacity="1"
     objecttolerance="10"
     gridtolerance="10"
     guidetolerance="10"
     inkscape:pageopacity="0"
     inkscape:pageshadow="2"
     inkscape:window-width="640"
     inkscape:window-height="480"
     id="namedview4" /><g
     id="g10"
     inkscape:groupmode="layer"
     inkscape:label="Jobsage (2)"
     transform="matrix(1.3333333,0,0,-1.3333333,0,1587.4)"><g
       id="g12"><g
         id="g14"><g
           id="g20"><g
             id="g22"><path
               d="m 399.703,807.916 c -10.889,0 -19.739,-8.84 -19.739,-19.74 v 0 c 0,-10.89 8.85,-19.741 19.739,-19.741 v 0 h 64.521 V 554.536 c 0,-19.61 -8.14,-37.341 -21.221,-49.981 v 0 c -0.109,-0.119 -0.23,-0.229 -0.339,-0.339 v 0 c -0.021,-0.01 -0.04,-0.031 -0.05,-0.05 v 0 c -12.481,-11.861 -29.35,-19.151 -47.911,-19.151 v 0 c -38.369,0 -69.529,31.151 -69.529,69.521 v 0 c 0,38.369 31.16,69.519 69.529,69.519 v 0 c 10.731,0 20.901,-2.43 29.971,-6.779 v 0 42.08 c -9.52,2.719 -19.58,4.18 -29.971,4.18 v 0 c -60.16,0 -109,-48.841 -109,-109 v 0 c 0,-60.161 48.84,-109 109,-109 v 0 c 22.381,0 43.19,6.76 60.501,18.34 v 0 l 67.29,-67.28 c 7.7,-7.711 20.21,-7.711 27.909,-0.01 v 0 c 7.711,7.71 7.711,20.209 0,27.92 v 0 l -66.869,66.87 c 12.699,17.819 20.17,39.62 20.17,63.16 v 0 233.64 c 0,10.9 -8.84,19.74 -19.741,19.74 v 0 z M 340.205,554.533 h 15.128 c 0,21.729 17.636,39.368 39.363,39.368 v 0 15.124 c -30.071,0 -54.491,-24.416 -54.491,-54.492 m 2.742,-17.094 c 1.783,-5.389 4.38,-10.404 7.648,-14.899 v 0 l 12.233,8.89 c -2.36,3.248 -4.237,6.869 -5.518,10.757 v 0 z"
               style="fill:url(#linearGradient30);stroke:none"
               id="path32" /></g></g></g></g><g
       id="g34"><g
         id="g36"><g
           id="g42"><g
             id="g44"><path
               d="m 248.099,350.294 v -60.02 c 0,-5.074 -0.391,-8.394 -1.173,-9.959 v 0 c -0.782,-1.563 -1.844,-2.655 -3.187,-3.275 v 0 c -1.343,-0.619 -3.282,-0.93 -5.82,-0.93 v 0 h -2.258 l 1.638,-8.232 c 1.358,-0.177 2.317,-0.266 2.877,-0.266 v 0 c 3.659,0 6.787,0.818 9.384,2.456 v 0 c 2.596,1.638 4.478,3.823 5.643,6.552 v 0 c 1.166,2.729 1.749,6.942 1.749,12.636 v 0 61.038 z"
               style="fill:url(#linearGradient52);stroke:none"
               id="path54" /></g></g></g></g><g
       id="g56"><g
         id="g58"><g
           id="g64"><g
             id="g66"><path
               d="m 277.306,342.106 c -6.251,-6.05 -9.377,-13.692 -9.377,-22.927 v 0 c 0,-9.001 3.103,-16.488 9.311,-22.464 v 0 c 6.207,-5.976 13.97,-8.963 23.289,-8.963 v 0 c 9.761,0 17.848,2.987 24.261,8.963 v 0 c 6.414,5.976 9.621,13.522 9.621,22.64 v 0 c 0,9.119 -3.177,16.701 -9.532,22.751 v 0 c -6.356,6.049 -14.31,9.075 -23.863,9.075 v 0 c -9.556,0 -17.458,-3.026 -23.71,-9.075 m 6.639,-39.571 c -4.569,4.427 -6.854,9.974 -6.854,16.644 v 0 c 0,6.875 2.278,12.526 6.833,16.952 v 0 c 4.555,4.426 10.37,6.639 17.446,6.639 v 0 c 6.721,0 12.388,-2.235 17.002,-6.706 v 0 c 4.615,-4.471 6.921,-9.981 6.921,-16.532 v 0 c 0,-6.727 -2.306,-12.349 -6.921,-16.864 v 0 c -4.614,-4.515 -10.37,-6.771 -17.268,-6.771 v 0 c -6.87,0 -12.588,2.212 -17.159,6.638"
               style="fill:url(#linearGradient74);stroke:none"
               id="path76" /></g></g></g></g><g
       id="g78"><g
         id="g80"><g
           id="g86"><g
             id="g88"><path
               d="M 345.3,350.294 V 288.46 h 20.937 c 4.72,0 8.653,0.781 11.795,2.345 v 0 c 3.143,1.564 5.525,3.587 7.149,6.065 v 0 c 1.623,2.478 2.435,5.296 2.435,8.454 v 0 c 0,3.983 -1.336,7.406 -4.006,10.268 v 0 c -2.671,2.863 -6.263,4.722 -10.779,5.577 v 0 c 6.286,2.627 9.429,6.979 9.429,13.059 v 0 c 0,3.157 -0.753,5.938 -2.257,8.344 v 0 c -1.505,2.403 -3.69,4.293 -6.552,5.664 v 0 c -2.862,1.373 -6.846,2.058 -11.951,2.058 v 0 z m 8.853,-7.878 h 7.613 c 7.553,0 11.331,-2.966 11.331,-8.897 v 0 c 0,-2.862 -0.996,-5.194 -2.988,-6.993 v 0 c -1.992,-1.801 -5.348,-2.7 -10.069,-2.7 v 0 h -5.887 z m 0,-26.469 h 8.277 c 4.397,0 7.613,-0.384 9.649,-1.151 v 0 c 2.036,-0.768 3.607,-1.933 4.714,-3.496 v 0 c 1.107,-1.565 1.66,-3.291 1.66,-5.179 v 0 c 0,-1.83 -0.524,-3.541 -1.572,-5.135 v 0 c -1.047,-1.594 -2.434,-2.767 -4.16,-3.518 v 0 c -1.727,-0.753 -5.009,-1.129 -9.848,-1.129 v 0 h -8.72 z"
               style="fill:url(#linearGradient96);stroke:none"
               id="path98" /></g></g></g></g><g
       id="g100"><g
         id="g102"><g
           id="g108"><g
             id="g110"><path
               d="m 398.305,346.532 c -3.38,-3.039 -5.068,-6.994 -5.068,-11.863 v 0 c 0,-3.245 0.892,-6.114 2.677,-8.608 v 0 c 1.785,-2.494 4.788,-5.029 9.008,-7.606 v 0 l 6.728,-4.087 c 5.429,-3.377 8.144,-6.947 8.144,-10.711 v 0 c 0,-2.324 -0.922,-4.256 -2.766,-5.799 v 0 c -1.845,-1.545 -4.154,-2.316 -6.928,-2.316 v 0 c -6.284,0 -11.818,3.028 -16.598,9.085 v 0 -11.243 c 5.016,-3.755 10.579,-5.632 16.687,-5.632 v 0 c 5.312,0 9.628,1.549 12.948,4.647 v 0 c 3.319,3.099 4.979,7.126 4.979,12.084 v 0 c 0,6.964 -3.771,12.698 -11.314,17.202 v 0 l -6.761,4.002 c -3.035,1.778 -5.237,3.475 -6.606,5.092 v 0 c -1.37,1.616 -2.054,3.35 -2.054,5.204 v 0 c 0,2.085 0.93,3.797 2.788,5.135 v 0 c 1.859,1.338 4.234,2.006 7.127,2.006 v 0 c 5.134,0 9.929,-2.143 14.385,-6.429 v 0 10.048 c -4.308,2.899 -9.045,4.349 -14.208,4.349 v 0 c -5.4,0 -9.79,-1.521 -13.168,-4.56"
               style="fill:url(#linearGradient118);stroke:none"
               id="path120" /></g></g></g></g><g
       id="g122"><g
         id="g124"><g
           id="g130"><g
             id="g132"><path
               d="m 457.597,350.649 -26.56,-62.189 h 9.097 l 7.728,18.325 h 26.38 l 8.242,-18.325 h 9.06 l -27.725,62.189 z m 3.03,-13.588 9.977,-22.398 h -19.229 z"
               style="fill:url(#linearGradient140);stroke:none"
               id="path142" /></g></g></g></g><g
       id="g144"><g
         id="g146"><g
           id="g152"><g
             id="g154"><path
               d="m 501.99,341.885 c -6.345,-6.138 -9.516,-13.826 -9.516,-23.061 v 0 c 0,-8.763 3.06,-16.133 9.184,-22.109 v 0 c 6.122,-5.976 14.304,-8.963 24.543,-8.963 v 0 c 7.495,0 15.05,1.652 22.663,4.957 v 0 26.204 h -20.759 v -7.879 h 11.907 v -12.881 l -0.841,-0.266 c -4.929,-1.622 -9.164,-2.434 -12.704,-2.434 v 0 c -7.289,0 -13.249,2.227 -17.882,6.683 v 0 c -4.633,4.456 -6.949,10.195 -6.949,17.219 v 0 c 0,6.699 2.316,12.35 6.949,16.952 v 0 c 4.633,4.604 10.328,6.906 17.086,6.906 v 0 c 7.259,0 14.576,-2.14 21.954,-6.419 v 0 9.03 c -4.78,2.007 -8.736,3.387 -11.862,4.139 v 0 c -3.13,0.753 -6.434,1.129 -9.916,1.129 v 0 c -9.56,0 -17.514,-3.07 -23.857,-9.207"
               style="fill:url(#linearGradient162);stroke:none"
               id="path164" /></g></g></g></g><g
       id="g166"><g
         id="g168"><g
           id="g174"><g
             id="g176"><path
               d="m 561.789,350.294 v -61.745 h 35.897 v 7.878 h -27.045 v 19.21 h 25.319 v 7.924 h -25.319 v 18.855 h 26.204 v 7.878 z"
               style="fill:url(#linearGradient184);stroke:none"
               id="path186" /></g></g></g></g></g></svg>
